<svg width="44" height="56" viewBox="0 0 44 56" fill="none" xmlns="http://www.w3.org/2000/svg">
<path d="M40 16.84V37.072C38.4749 36.1915 36.7018 35.8388 34.9558 36.0686C33.2098 36.2985 31.5884 37.0981 30.3431 38.3434C29.0979 39.5887 28.2983 41.2101 28.0684 42.9561C27.8386 44.7021 28.1913 46.4752 29.0719 48.0003C29.9524 49.5254 31.3116 50.7174 32.9387 51.3913C34.5657 52.0652 36.3696 52.1834 38.0707 51.7276C39.7718 51.2717 41.2749 50.2673 42.3469 48.8702C43.419 47.473 44.0001 45.7611 44 44V3.704C44.0006 3.19055 43.8777 2.68449 43.6415 2.22856C43.4054 1.77263 43.063 1.38022 42.6433 1.08446C42.2236 0.788698 41.7389 0.598276 41.2301 0.529273C40.7213 0.460271 40.2033 0.514714 39.72 0.688004L14.12 9.832C13.4994 10.0545 12.9627 10.4633 12.5832 11.0024C12.2037 11.5415 12.0001 12.1847 12 12.844V41.068C10.475 40.1875 8.70213 39.8348 6.95627 40.0646C5.21041 40.2943 3.58913 41.0937 2.34383 42.3387C1.09853 43.5837 0.298794 45.2048 0.0686383 46.9506C-0.161517 48.6964 0.190766 50.4694 1.07086 51.9946C1.95095 53.5198 3.30968 54.712 4.93635 55.3863C6.56302 56.0607 8.36674 56.1795 10.0678 55.7243C11.7689 55.2692 13.2723 54.2655 14.3448 52.8689C15.4174 51.4724 15.9992 49.7609 16 48V25.412L40 16.844V16.84Z" fill="url(#paint0_linear_1_10)"/>
<defs>
<linearGradient id="paint0_linear_1_10" x1="22" y1="0.500244" x2="61.8199" y2="20.4789" gradientUnits="userSpaceOnUse">
<stop stop-color="#FF5353"/>
<stop offset="1" stop-color="#E91E1E"/>
</linearGradient>
</defs>
</svg>
